<svg width="453" height="40" viewBox="0 0 453 40" fill="none" xmlns="http://www.w3.org/2000/svg">
<path d="M6.372 13.36C5.256 13.36 4.272 13.09 3.42 12.55C2.58 12.01 1.932 11.278 1.476 10.354C1.02 9.418 0.792 8.38 0.792 7.24C0.792 6.064 1.038 4.978 1.53 3.982C2.034 2.986 2.712 2.2 3.564 1.624C4.428 1.048 5.364 0.76 6.372 0.76C7.332 0.76 8.172 0.898 8.892 1.174C9.624 1.438 10.164 1.78 10.512 2.2C10.716 2.452 10.842 2.788 10.89 3.208C10.938 3.616 10.962 4.18 10.962 4.9H10.602C10.374 3.736 9.954 2.878 9.342 2.326C8.73 1.762 7.92 1.48 6.912 1.48C5.616 1.48 4.572 1.936 3.78 2.848C2.988 3.76 2.592 5.224 2.592 7.24C2.592 8.188 2.742 9.07 3.042 9.886C3.354 10.702 3.834 11.368 4.482 11.884C5.13 12.388 5.94 12.64 6.912 12.64C7.788 12.64 8.55 12.43 9.198 12.01C9.858 11.59 10.446 10.96 10.962 10.12L11.322 10.39C10.77 11.47 10.086 12.238 9.27 12.694C8.466 13.138 7.5 13.36 6.372 13.36ZM16.7047 13.18C15.8047 13.18 15.0667 12.94 14.4907 12.46C13.9267 11.98 13.6447 11.14 13.6447 9.94V6.7C13.6447 6.088 13.5607 5.638 13.3927 5.35C13.2247 5.05 12.8887 4.9 12.3847 4.9H12.2047V4.54H13.6447C14.0887 4.54 14.4187 4.6 14.6347 4.72C14.8627 4.828 15.0247 5.032 15.1207 5.332C15.2167 5.632 15.2647 6.088 15.2647 6.7V9.94C15.2647 10.78 15.4507 11.398 15.8227 11.794C16.2067 12.178 16.6807 12.37 17.2447 12.37C17.8807 12.37 18.4807 12.052 19.0447 11.416V4.54H20.6647V13H19.7647L19.1347 12.28H19.0447C18.7927 12.532 18.4627 12.748 18.0547 12.928C17.6587 13.096 17.2087 13.18 16.7047 13.18ZM23.7635 6.7C23.7635 6.088 23.6795 5.638 23.5115 5.35C23.3435 5.05 23.0075 4.9 22.5035 4.9H22.3235V4.54H23.7635C24.2195 4.54 24.5615 4.606 24.7895 4.738C25.0295 4.858 25.1975 5.062 25.2935 5.35H25.3835C25.5995 5.074 25.8875 4.84 26.2475 4.648C26.6195 4.456 27.0515 4.36 27.5435 4.36C28.0235 4.36 28.3835 4.45 28.6235 4.63C28.8275 4.786 29.0375 5.056 29.2535 5.44L28.5335 5.98C28.4015 5.8 28.2095 5.668 27.9575 5.584C27.7055 5.488 27.4175 5.44 27.0935 5.44C26.7335 5.44 26.4035 5.524 26.1035 5.692C25.8035 5.848 25.5635 6.064 25.3835 6.34V13H23.7635V6.7ZM31.2778 6.7C31.2778 6.088 31.1938 5.638 31.0258 5.35C30.8578 5.05 30.5218 4.9 30.0178 4.9H29.8378V4.54H31.2778C31.7338 4.54 32.0758 4.606 32.3038 4.738C32.5438 4.858 32.7118 5.062 32.8078 5.35H32.8978C33.1138 5.074 33.4018 4.84 33.7618 4.648C34.1338 4.456 34.5658 4.36 35.0578 4.36C35.5378 4.36 35.8978 4.45 36.1378 4.63C36.3418 4.786 36.5518 5.056 36.7678 5.44L36.0478 5.98C35.9158 5.8 35.7238 5.668 35.4718 5.584C35.2198 5.488 34.9318 5.44 34.6078 5.44C34.2478 5.44 33.9178 5.524 33.6178 5.692C33.3178 5.848 33.0778 6.064 32.8978 6.34V13H31.2778V6.7ZM39.6021 3.46C39.3261 3.46 39.0861 3.346 38.8821 3.118C38.6901 2.89 38.5941 2.62 38.5941 2.308C38.5941 2.056 38.6661 1.858 38.8101 1.714C38.9661 1.57 39.1701 1.498 39.4221 1.498C39.6981 1.498 39.9321 1.612 40.1241 1.84C40.3281 2.068 40.4301 2.338 40.4301 2.65C40.4301 2.902 40.3521 3.1 40.1961 3.244C40.0521 3.388 39.8541 3.46 39.6021 3.46ZM38.9181 6.7C38.9181 6.088 38.8341 5.638 38.6661 5.35C38.4981 5.05 38.1621 4.9 37.6581 4.9H37.2981V4.54H38.9181C39.3621 4.54 39.6921 4.6 39.9081 4.72C40.1361 4.828 40.2981 5.032 40.3941 5.332C40.4901 5.632 40.5381 6.088 40.5381 6.7V13H38.9181V6.7ZM46.9118 13.18C46.0478 13.18 45.3158 12.988 44.7158 12.604C44.1278 12.208 43.6838 11.68 43.3838 11.02C43.0958 10.348 42.9518 9.598 42.9518 8.77C42.9518 7.942 43.0958 7.198 43.3838 6.538C43.6838 5.866 44.1278 5.338 44.7158 4.954C45.3158 4.558 46.0478 4.36 46.9118 4.36C48.2318 4.36 49.1018 4.57 49.5218 4.99C49.7258 5.194 49.8518 5.446 49.8998 5.746C49.9478 6.034 49.9718 6.562 49.9718 7.33H49.6118C49.5638 6.586 49.3298 6.028 48.9098 5.656C48.4898 5.272 47.9438 5.08 47.2718 5.08C46.4078 5.08 45.7538 5.422 45.3098 6.106C44.8778 6.79 44.6618 7.678 44.6618 8.77C44.6618 9.862 44.8778 10.75 45.3098 11.434C45.7538 12.118 46.4078 12.46 47.2718 12.46C47.8838 12.46 48.3878 12.346 48.7838 12.118C49.1798 11.878 49.5458 11.512 49.8818 11.02L50.2418 11.29C49.8458 11.962 49.3778 12.448 48.8378 12.748C48.2978 13.036 47.6558 13.18 46.9118 13.18ZM55.577 13.18C54.677 13.18 53.939 12.94 53.363 12.46C52.799 11.98 52.517 11.14 52.517 9.94V6.7C52.517 6.088 52.433 5.638 52.265 5.35C52.097 5.05 51.761 4.9 51.257 4.9H51.077V4.54H52.517C52.961 4.54 53.291 4.6 53.507 4.72C53.735 4.828 53.897 5.032 53.993 5.332C54.089 5.632 54.137 6.088 54.137 6.7V9.94C54.137 10.78 54.323 11.398 54.695 11.794C55.079 12.178 55.553 12.37 56.117 12.37C56.753 12.37 57.353 12.052 57.917 11.416V4.54H59.537V13H58.637L58.007 12.28H57.917C57.665 12.532 57.335 12.748 56.927 12.928C56.531 13.096 56.081 13.18 55.577 13.18ZM62.5638 3.28C62.5638 2.668 62.4798 2.218 62.3118 1.93C62.1438 1.63 61.8078 1.48 61.3038 1.48H60.9438V1.12H62.5638C63.0078 1.12 63.3378 1.18 63.5538 1.3C63.7818 1.408 63.9438 1.612 64.0398 1.912C64.1358 2.212 64.1838 2.668 64.1838 3.28V13H62.5638V3.28ZM70.2892 13.18C69.3892 13.18 68.6512 12.94 68.0752 12.46C67.5112 11.98 67.2292 11.14 67.2292 9.94V6.7C67.2292 6.088 67.1452 5.638 66.9772 5.35C66.8092 5.05 66.4732 4.9 65.9692 4.9H65.7892V4.54H67.2292C67.6732 4.54 68.0032 4.6 68.2192 4.72C68.4472 4.828 68.6092 5.032 68.7052 5.332C68.8012 5.632 68.8492 6.088 68.8492 6.7V9.94C68.8492 10.78 69.0352 11.398 69.4072 11.794C69.7912 12.178 70.2652 12.37 70.8292 12.37C71.4652 12.37 72.0652 12.052 72.6292 11.416V4.54H74.2492V13H73.3492L72.7192 12.28H72.6292C72.3772 12.532 72.0472 12.748 71.6392 12.928C71.2432 13.096 70.7932 13.18 70.2892 13.18ZM77.474 6.7C77.474 6.088 77.39 5.638 77.222 5.35C77.054 5.05 76.718 4.9 76.214 4.9H75.854V4.54H77.474C77.918 4.54 78.254 4.6 78.482 4.72C78.722 4.84 78.896 5.02 79.004 5.26H79.094C79.346 5.008 79.67 4.798 80.066 4.63C80.474 4.45 80.93 4.36 81.434 4.36C81.938 4.36 82.37 4.456 82.73 4.648C83.09 4.828 83.378 5.152 83.594 5.62C83.906 5.224 84.302 4.918 84.782 4.702C85.274 4.474 85.778 4.36 86.294 4.36C87.062 4.36 87.674 4.6 88.13 5.08C88.586 5.56 88.814 6.4 88.814 7.6V13H87.194V7.6C87.194 6.736 87.074 6.118 86.834 5.746C86.594 5.362 86.234 5.17 85.754 5.17C85.418 5.17 85.064 5.296 84.692 5.548C84.32 5.788 84.044 6.052 83.864 6.34C83.924 6.52 83.954 6.94 83.954 7.6V13H82.334V7.6C82.334 6.736 82.214 6.118 81.974 5.746C81.734 5.362 81.374 5.17 80.894 5.17C80.258 5.17 79.658 5.488 79.094 6.124V13H77.474V6.7ZM99.3468 13.18C98.3028 13.18 97.4988 12.766 96.9348 11.938C96.3828 11.11 96.1068 10.054 96.1068 8.77C96.1068 7.486 96.3948 6.43 96.9708 5.602C97.5588 4.774 98.4108 4.36 99.5268 4.36C99.9828 4.36 100.385 4.408 100.733 4.504C101.081 4.6 101.429 4.732 101.777 4.9V3.28C101.777 2.668 101.693 2.218 101.525 1.93C101.357 1.63 101.021 1.48 100.517 1.48H100.157V1.12H101.777C102.221 1.12 102.551 1.18 102.767 1.3C102.995 1.408 103.157 1.612 103.253 1.912C103.349 2.212 103.397 2.668 103.397 3.28V13H102.497L101.867 12.19H101.777C101.513 12.49 101.201 12.73 100.841 12.91C100.493 13.09 99.9948 13.18 99.3468 13.18ZM99.8868 12.46C100.379 12.46 100.751 12.37 101.003 12.19C101.255 12.01 101.513 11.74 101.777 11.38V5.62C101.417 5.452 101.105 5.32 100.841 5.224C100.577 5.128 100.319 5.08 100.067 5.08C99.2988 5.08 98.7288 5.416 98.3568 6.088C97.9968 6.76 97.8168 7.654 97.8168 8.77C97.8168 9.874 97.9908 10.768 98.3388 11.452C98.6868 12.124 99.2028 12.46 99.8868 12.46ZM109.65 13.18C108.834 13.18 108.144 12.988 107.58 12.604C107.016 12.208 106.59 11.68 106.302 11.02C106.014 10.348 105.87 9.598 105.87 8.77C105.87 7.954 106.014 7.21 106.302 6.538C106.59 5.866 107.004 5.338 107.544 4.954C108.096 4.558 108.738 4.36 109.47 4.36C110.682 4.36 111.582 4.702 112.17 5.386C112.77 6.058 113.07 7.036 113.07 8.32L113.034 9.04H107.58C107.58 10.048 107.796 10.87 108.228 11.506C108.66 12.142 109.254 12.46 110.01 12.46C110.574 12.46 111.048 12.34 111.432 12.1C111.828 11.86 112.194 11.5 112.53 11.02L112.89 11.29C112.494 11.95 112.032 12.43 111.504 12.73C110.976 13.03 110.358 13.18 109.65 13.18ZM111.36 8.32C111.36 7.264 111.204 6.46 110.892 5.908C110.58 5.356 110.106 5.08 109.47 5.08C109.11 5.08 108.786 5.224 108.498 5.512C108.21 5.788 107.982 6.172 107.814 6.664C107.658 7.156 107.58 7.708 107.58 8.32H111.36ZM118.331 13.18C116.951 13.18 116.021 12.94 115.541 12.46C115.337 12.256 115.211 12.028 115.163 11.776C115.115 11.512 115.091 11.11 115.091 10.57H115.451C115.559 11.17 115.817 11.638 116.225 11.974C116.645 12.298 117.227 12.46 117.971 12.46C118.631 12.46 119.123 12.346 119.447 12.118C119.783 11.89 119.951 11.584 119.951 11.2C119.951 10.852 119.819 10.552 119.555 10.3C119.303 10.048 118.895 9.808 118.331 9.58L117.251 9.13C116.531 8.842 115.991 8.506 115.631 8.122C115.271 7.738 115.091 7.264 115.091 6.7C115.091 5.968 115.367 5.398 115.919 4.99C116.471 4.57 117.185 4.36 118.061 4.36C119.381 4.36 120.281 4.6 120.761 5.08C120.965 5.284 121.091 5.512 121.139 5.764C121.187 6.016 121.211 6.418 121.211 6.97H120.851C120.755 6.37 120.503 5.908 120.095 5.584C119.687 5.248 119.129 5.08 118.421 5.08C117.857 5.08 117.413 5.2 117.089 5.44C116.777 5.668 116.621 5.968 116.621 6.34C116.621 6.964 117.101 7.474 118.061 7.87L119.141 8.32C119.957 8.656 120.551 9.016 120.923 9.4C121.295 9.772 121.481 10.252 121.481 10.84C121.481 11.572 121.187 12.148 120.599 12.568C120.011 12.976 119.255 13.18 118.331 13.18ZM124.853 3.46C124.577 3.46 124.337 3.346 124.133 3.118C123.941 2.89 123.845 2.62 123.845 2.308C123.845 2.056 123.917 1.858 124.061 1.714C124.217 1.57 124.421 1.498 124.673 1.498C124.949 1.498 125.183 1.612 125.375 1.84C125.579 2.068 125.681 2.338 125.681 2.65C125.681 2.902 125.603 3.1 125.447 3.244C125.303 3.388 125.105 3.46 124.853 3.46ZM124.169 6.7C124.169 6.088 124.085 5.638 123.917 5.35C123.749 5.05 123.413 4.9 122.909 4.9H122.549V4.54H124.169C124.613 4.54 124.943 4.6 125.159 4.72C125.387 4.828 125.549 5.032 125.645 5.332C125.741 5.632 125.789 6.088 125.789 6.7V13H124.169V6.7ZM131.82 16.6C130.608 16.6 129.642 16.378 128.922 15.934C128.214 15.49 127.86 14.782 127.86 13.81C127.86 13.258 128.046 12.778 128.418 12.37C128.79 11.962 129.264 11.662 129.84 11.47C129.36 11.206 129.12 10.846 129.12 10.39C129.12 10.15 129.174 9.964 129.282 9.832C129.39 9.7 129.546 9.556 129.75 9.4C129.366 9.208 129.042 8.908 128.778 8.5C128.526 8.092 128.4 7.612 128.4 7.06C128.4 5.26 129.54 4.36 131.82 4.36H135.15V4.81L133.98 4.99V5.08C134.352 5.272 134.652 5.542 134.88 5.89C135.12 6.226 135.24 6.616 135.24 7.06C135.24 8.86 134.1 9.76 131.82 9.76C130.56 9.76 129.93 9.97 129.93 10.39C129.93 10.81 130.56 11.02 131.82 11.02C132.984 11.02 133.932 11.254 134.664 11.722C135.408 12.178 135.78 12.874 135.78 13.81C135.78 14.782 135.42 15.49 134.7 15.934C133.992 16.378 133.032 16.6 131.82 16.6ZM131.82 9.13C132.36 9.13 132.792 8.968 133.116 8.644C133.452 8.308 133.62 7.78 133.62 7.06C133.62 6.376 133.452 5.86 133.116 5.512C132.792 5.164 132.36 4.99 131.82 4.99C131.28 4.99 130.842 5.158 130.506 5.494C130.182 5.818 130.02 6.34 130.02 7.06C130.02 7.78 130.182 8.308 130.506 8.644C130.842 8.968 131.28 9.13 131.82 9.13ZM131.82 15.88C132.54 15.88 133.11 15.706 133.53 15.358C133.95 15.022 134.16 14.506 134.16 13.81C134.16 12.61 133.44 11.92 132 11.74L131.01 11.65C130.518 11.842 130.14 12.112 129.876 12.46C129.612 12.808 129.48 13.258 129.48 13.81C129.48 14.506 129.69 15.022 130.11 15.358C130.53 15.706 131.1 15.88 131.82 15.88ZM138.178 6.7C138.178 6.088 138.094 5.638 137.926 5.35C137.758 5.05 137.422 4.9 136.918 4.9H136.558V4.54H138.178C138.622 4.54 138.958 4.6 139.186 4.72C139.426 4.84 139.6 5.02 139.708 5.26H139.798C140.05 5.008 140.374 4.798 140.77 4.63C141.178 4.45 141.634 4.36 142.138 4.36C143.038 4.36 143.77 4.6 144.334 5.08C144.91 5.56 145.198 6.4 145.198 7.6V13H143.578V7.6C143.578 6.76 143.386 6.148 143.002 5.764C142.63 5.368 142.162 5.17 141.598 5.17C140.962 5.17 140.362 5.488 139.798 6.124V13H138.178V6.7ZM151.353 13.18C150.537 13.18 149.847 12.988 149.283 12.604C148.719 12.208 148.293 11.68 148.005 11.02C147.717 10.348 147.573 9.598 147.573 8.77C147.573 7.954 147.717 7.21 148.005 6.538C148.293 5.866 148.707 5.338 149.247 4.954C149.799 4.558 150.441 4.36 151.173 4.36C152.385 4.36 153.285 4.702 153.873 5.386C154.473 6.058 154.773 7.036 154.773 8.32L154.737 9.04H149.283C149.283 10.048 149.499 10.87 149.931 11.506C150.363 12.142 150.957 12.46 151.713 12.46C152.277 12.46 152.751 12.34 153.135 12.1C153.531 11.86 153.897 11.5 154.233 11.02L154.593 11.29C154.197 11.95 153.735 12.43 153.207 12.73C152.679 13.03 152.061 13.18 151.353 13.18ZM153.063 8.32C153.063 7.264 152.907 6.46 152.595 5.908C152.283 5.356 151.809 5.08 151.173 5.08C150.813 5.08 150.489 5.224 150.201 5.512C149.913 5.788 149.685 6.172 149.517 6.664C149.361 7.156 149.283 7.708 149.283 8.32H153.063ZM159.998 13.18C158.954 13.18 158.15 12.766 157.586 11.938C157.034 11.11 156.758 10.054 156.758 8.77C156.758 7.486 157.046 6.43 157.622 5.602C158.21 4.774 159.062 4.36 160.178 4.36C160.634 4.36 161.036 4.408 161.384 4.504C161.732 4.6 162.08 4.732 162.428 4.9V3.28C162.428 2.668 162.344 2.218 162.176 1.93C162.008 1.63 161.672 1.48 161.168 1.48H160.808V1.12H162.428C162.872 1.12 163.202 1.18 163.418 1.3C163.646 1.408 163.808 1.612 163.904 1.912C164 2.212 164.048 2.668 164.048 3.28V13H163.148L162.518 12.19H162.428C162.164 12.49 161.852 12.73 161.492 12.91C161.144 13.09 160.646 13.18 159.998 13.18ZM160.538 12.46C161.03 12.46 161.402 12.37 161.654 12.19C161.906 12.01 162.164 11.74 162.428 11.38V5.62C162.068 5.452 161.756 5.32 161.492 5.224C161.228 5.128 160.97 5.08 160.718 5.08C159.95 5.08 159.38 5.416 159.008 6.088C158.648 6.76 158.468 7.654 158.468 8.77C158.468 9.874 158.642 10.768 158.99 11.452C159.338 12.124 159.854 12.46 160.538 12.46ZM173.883 13.18C173.499 13.18 173.109 13.102 172.713 12.946C172.317 12.778 171.975 12.508 171.687 12.136C171.411 11.764 171.273 11.272 171.273 10.66C171.273 9.748 171.693 9.1 172.533 8.716C173.385 8.332 174.495 8.14 175.863 8.14H176.403C176.403 6.964 176.241 6.16 175.917 5.728C175.593 5.296 175.125 5.08 174.513 5.08C173.973 5.08 173.541 5.194 173.217 5.422C172.893 5.65 172.665 6.046 172.533 6.61H171.723C171.723 6.202 171.747 5.884 171.795 5.656C171.843 5.416 171.969 5.194 172.173 4.99C172.389 4.774 172.743 4.618 173.235 4.522C173.739 4.414 174.285 4.36 174.873 4.36C175.845 4.36 176.613 4.624 177.177 5.152C177.741 5.668 178.023 6.664 178.023 8.14V13H177.123L176.493 12.19H176.403C176.187 12.466 175.869 12.7 175.449 12.892C175.029 13.084 174.507 13.18 173.883 13.18ZM174.693 12.37C175.089 12.37 175.419 12.274 175.683 12.082C175.947 11.89 176.187 11.626 176.403 11.29V8.86H175.863C174.975 8.86 174.273 9.028 173.757 9.364C173.241 9.688 172.983 10.12 172.983 10.66C172.983 11.212 173.145 11.638 173.469 11.938C173.805 12.226 174.213 12.37 174.693 12.37ZM181.163 6.7C181.163 6.088 181.079 5.638 180.911 5.35C180.743 5.05 180.407 4.9 179.903 4.9H179.543V4.54H181.163C181.607 4.54 181.943 4.6 182.171 4.72C182.411 4.84 182.585 5.02 182.693 5.26H182.783C183.035 5.008 183.359 4.798 183.755 4.63C184.163 4.45 184.619 4.36 185.123 4.36C186.023 4.36 186.755 4.6 187.319 5.08C187.895 5.56 188.183 6.4 188.183 7.6V13H186.563V7.6C186.563 6.76 186.371 6.148 185.987 5.764C185.615 5.368 185.147 5.17 184.583 5.17C183.947 5.17 183.347 5.488 182.783 6.124V13H181.163V6.7ZM193.834 13.18C192.79 13.18 191.986 12.766 191.422 11.938C190.87 11.11 190.594 10.054 190.594 8.77C190.594 7.486 190.882 6.43 191.458 5.602C192.046 4.774 192.898 4.36 194.014 4.36C194.47 4.36 194.872 4.408 195.22 4.504C195.568 4.6 195.916 4.732 196.264 4.9V3.28C196.264 2.668 196.18 2.218 196.012 1.93C195.844 1.63 195.508 1.48 195.004 1.48H194.644V1.12H196.264C196.708 1.12 197.038 1.18 197.254 1.3C197.482 1.408 197.644 1.612 197.74 1.912C197.836 2.212 197.884 2.668 197.884 3.28V13H196.984L196.354 12.19H196.264C196 12.49 195.688 12.73 195.328 12.91C194.98 13.09 194.482 13.18 193.834 13.18ZM194.374 12.46C194.866 12.46 195.238 12.37 195.49 12.19C195.742 12.01 196 11.74 196.264 11.38V5.62C195.904 5.452 195.592 5.32 195.328 5.224C195.064 5.128 194.806 5.08 194.554 5.08C193.786 5.08 193.216 5.416 192.844 6.088C192.484 6.76 192.304 7.654 192.304 8.77C192.304 9.874 192.478 10.768 192.826 11.452C193.174 12.124 193.69 12.46 194.374 12.46ZM208.206 13.18C207.534 13.18 207.006 12.988 206.622 12.604C206.238 12.22 206.046 11.632 206.046 10.84V5.26H204.786V4.54H206.046V2.92L206.946 1.84H207.666V4.54H209.826V5.26H207.666V10.84C207.666 11.92 208.086 12.46 208.926 12.46C209.214 12.46 209.454 12.43 209.646 12.37C209.85 12.31 210.06 12.22 210.276 12.1L210.456 12.46C210.18 12.664 209.874 12.838 209.538 12.982C209.202 13.114 208.758 13.18 208.206 13.18ZM214.162 13.18C213.778 13.18 213.388 13.102 212.992 12.946C212.596 12.778 212.254 12.508 211.966 12.136C211.69 11.764 211.552 11.272 211.552 10.66C211.552 9.748 211.972 9.1 212.812 8.716C213.664 8.332 214.774 8.14 216.142 8.14H216.682C216.682 6.964 216.52 6.16 216.196 5.728C215.872 5.296 215.404 5.08 214.792 5.08C214.252 5.08 213.82 5.194 213.496 5.422C213.172 5.65 212.944 6.046 212.812 6.61H212.002C212.002 6.202 212.026 5.884 212.074 5.656C212.122 5.416 212.248 5.194 212.452 4.99C212.668 4.774 213.022 4.618 213.514 4.522C214.018 4.414 214.564 4.36 215.152 4.36C216.124 4.36 216.892 4.624 217.456 5.152C218.02 5.668 218.302 6.664 218.302 8.14V13H217.402L216.772 12.19H216.682C216.466 12.466 216.148 12.7 215.728 12.892C215.308 13.084 214.786 13.18 214.162 13.18ZM214.972 12.37C215.368 12.37 215.698 12.274 215.962 12.082C216.226 11.89 216.466 11.626 216.682 11.29V8.86H216.142C215.254 8.86 214.552 9.028 214.036 9.364C213.52 9.688 213.262 10.12 213.262 10.66C213.262 11.212 213.424 11.638 213.748 11.938C214.084 12.226 214.492 12.37 214.972 12.37ZM224.25 13.18C223.35 13.18 222.612 12.94 222.036 12.46C221.472 11.98 221.19 11.14 221.19 9.94V6.7C221.19 6.088 221.106 5.638 220.938 5.35C220.77 5.05 220.434 4.9 219.93 4.9H219.75V4.54H221.19C221.634 4.54 221.964 4.6 222.18 4.72C222.408 4.828 222.57 5.032 222.666 5.332C222.762 5.632 222.81 6.088 222.81 6.7V9.94C222.81 10.78 222.996 11.398 223.368 11.794C223.752 12.178 224.226 12.37 224.79 12.37C225.426 12.37 226.026 12.052 226.59 11.416V4.54H228.21V13H227.31L226.68 12.28H226.59C226.338 12.532 226.008 12.748 225.6 12.928C225.204 13.096 224.754 13.18 224.25 13.18ZM234.296 16.6C233.084 16.6 232.118 16.378 231.398 15.934C230.69 15.49 230.336 14.782 230.336 13.81C230.336 13.258 230.522 12.778 230.894 12.37C231.266 11.962 231.74 11.662 232.316 11.47C231.836 11.206 231.596 10.846 231.596 10.39C231.596 10.15 231.65 9.964 231.758 9.832C231.866 9.7 232.022 9.556 232.226 9.4C231.842 9.208 231.518 8.908 231.254 8.5C231.002 8.092 230.876 7.612 230.876 7.06C230.876 5.26 232.016 4.36 234.296 4.36H237.626V4.81L236.456 4.99V5.08C236.828 5.272 237.128 5.542 237.356 5.89C237.596 6.226 237.716 6.616 237.716 7.06C237.716 8.86 236.576 9.76 234.296 9.76C233.036 9.76 232.406 9.97 232.406 10.39C232.406 10.81 233.036 11.02 234.296 11.02C235.46 11.02 236.408 11.254 237.14 11.722C237.884 12.178 238.256 12.874 238.256 13.81C238.256 14.782 237.896 15.49 237.176 15.934C236.468 16.378 235.508 16.6 234.296 16.6ZM234.296 9.13C234.836 9.13 235.268 8.968 235.592 8.644C235.928 8.308 236.096 7.78 236.096 7.06C236.096 6.376 235.928 5.86 235.592 5.512C235.268 5.164 234.836 4.99 234.296 4.99C233.756 4.99 233.318 5.158 232.982 5.494C232.658 5.818 232.496 6.34 232.496 7.06C232.496 7.78 232.658 8.308 232.982 8.644C233.318 8.968 233.756 9.13 234.296 9.13ZM234.296 15.88C235.016 15.88 235.586 15.706 236.006 15.358C236.426 15.022 236.636 14.506 236.636 13.81C236.636 12.61 235.916 11.92 234.476 11.74L233.486 11.65C232.994 11.842 232.616 12.112 232.352 12.46C232.088 12.808 231.956 13.258 231.956 13.81C231.956 14.506 232.166 15.022 232.586 15.358C233.006 15.706 233.576 15.88 234.296 15.88ZM240.384 3.28C240.384 2.668 240.3 2.218 240.132 1.93C239.964 1.63 239.628 1.48 239.124 1.48H238.764V1.12H240.384C240.828 1.12 241.158 1.18 241.374 1.3C241.602 1.408 241.764 1.612 241.86 1.912C241.956 2.212 242.004 2.668 242.004 3.28V5.26C242.256 5.008 242.58 4.798 242.976 4.63C243.384 4.45 243.84 4.36 244.344 4.36C245.244 4.36 245.976 4.6 246.54 5.08C247.116 5.56 247.404 6.4 247.404 7.6V13H245.784V7.6C245.784 6.76 245.592 6.148 245.208 5.764C244.836 5.368 244.368 5.17 243.804 5.17C243.168 5.17 242.568 5.488 242.004 6.124V13H240.384V3.28ZM252.773 13.18C252.101 13.18 251.573 12.988 251.189 12.604C250.805 12.22 250.613 11.632 250.613 10.84V5.26H249.353V4.54H250.613V2.92L251.513 1.84H252.233V4.54H254.393V5.26H252.233V10.84C252.233 11.92 252.653 12.46 253.493 12.46C253.781 12.46 254.021 12.43 254.213 12.37C254.417 12.31 254.627 12.22 254.843 12.1L255.023 12.46C254.747 12.664 254.441 12.838 254.105 12.982C253.769 13.114 253.325 13.18 252.773 13.18ZM265.623 13.18C265.011 13.18 264.507 13.084 264.111 12.892C263.715 12.7 263.409 12.466 263.193 12.19H263.103L262.473 13H261.573V3.28C261.573 2.668 261.489 2.218 261.321 1.93C261.153 1.63 260.817 1.48 260.313 1.48H259.953V1.12H261.573C262.017 1.12 262.347 1.18 262.563 1.3C262.791 1.408 262.953 1.612 263.049 1.912C263.145 2.212 263.193 2.668 263.193 3.28V4.9C263.541 4.732 263.889 4.6 264.237 4.504C264.585 4.408 264.987 4.36 265.443 4.36C266.559 4.36 267.405 4.774 267.981 5.602C268.569 6.43 268.863 7.486 268.863 8.77C268.863 10.042 268.581 11.098 268.017 11.938C267.453 12.766 266.655 13.18 265.623 13.18ZM265.083 12.46C265.767 12.46 266.283 12.124 266.631 11.452C266.979 10.768 267.153 9.874 267.153 8.77C267.153 7.654 266.967 6.76 266.595 6.088C266.235 5.416 265.671 5.08 264.903 5.08C264.651 5.08 264.393 5.128 264.129 5.224C263.865 5.32 263.553 5.452 263.193 5.62V11.38C263.409 11.704 263.661 11.968 263.949 12.172C264.249 12.364 264.627 12.46 265.083 12.46ZM271.685 16.06C272.273 16.06 272.753 15.922 273.125 15.646C273.509 15.382 273.839 14.89 274.115 14.17L274.475 13.18L271.595 6.16C271.259 5.296 270.599 4.816 269.615 4.72V4.36H271.145C272.189 4.36 272.909 4.84 273.305 5.8L275.357 10.786L277.625 4.54H278.525L275.015 14.17C274.667 15.118 274.283 15.76 273.863 16.096C273.443 16.432 272.897 16.6 272.225 16.6H271.685V16.06ZM295.457 13.09C294.881 13.09 294.311 12.934 293.747 12.622C293.183 12.298 292.733 11.674 292.397 10.75L291.947 9.58H286.907L285.467 13H284.657L289.697 1.12H290.237L294.197 10.75C294.497 11.446 294.779 11.926 295.043 12.19C295.307 12.442 295.685 12.592 296.177 12.64V13C295.961 13.06 295.721 13.09 295.457 13.09ZM291.587 8.86L289.427 3.64L287.177 8.86H291.587ZM297.415 3.28C297.415 2.668 297.331 2.218 297.163 1.93C296.995 1.63 296.659 1.48 296.155 1.48H295.795V1.12H297.415C297.859 1.12 298.189 1.18 298.405 1.3C298.633 1.408 298.795 1.612 298.891 1.912C298.987 2.212 299.035 2.668 299.035 3.28V13H297.415V3.28ZM305.141 13.18C304.241 13.18 303.503 12.94 302.927 12.46C302.363 11.98 302.081 11.14 302.081 9.94V6.7C302.081 6.088 301.997 5.638 301.829 5.35C301.661 5.05 301.325 4.9 300.821 4.9H300.641V4.54H302.081C302.525 4.54 302.855 4.6 303.071 4.72C303.299 4.828 303.461 5.032 303.557 5.332C303.653 5.632 303.701 6.088 303.701 6.7V9.94C303.701 10.78 303.887 11.398 304.259 11.794C304.643 12.178 305.117 12.37 305.681 12.37C306.317 12.37 306.917 12.052 307.481 11.416V4.54H309.101V13H308.201L307.571 12.28H307.481C307.229 12.532 306.899 12.748 306.491 12.928C306.095 13.096 305.645 13.18 305.141 13.18ZM312.325 6.7C312.325 6.088 312.241 5.638 312.073 5.35C311.905 5.05 311.569 4.9 311.065 4.9H310.705V4.54H312.325C312.769 4.54 313.105 4.6 313.333 4.72C313.573 4.84 313.747 5.02 313.855 5.26H313.945C314.197 5.008 314.521 4.798 314.917 4.63C315.325 4.45 315.781 4.36 316.285 4.36C316.789 4.36 317.221 4.456 317.581 4.648C317.941 4.828 318.229 5.152 318.445 5.62C318.757 5.224 319.153 4.918 319.633 4.702C320.125 4.474 320.629 4.36 321.145 4.36C321.913 4.36 322.525 4.6 322.981 5.08C323.437 5.56 323.665 6.4 323.665 7.6V13H322.045V7.6C322.045 6.736 321.925 6.118 321.685 5.746C321.445 5.362 321.085 5.17 320.605 5.17C320.269 5.17 319.915 5.296 319.543 5.548C319.171 5.788 318.895 6.052 318.715 6.34C318.775 6.52 318.805 6.94 318.805 7.6V13H317.185V7.6C317.185 6.736 317.065 6.118 316.825 5.746C316.585 5.362 316.225 5.17 315.745 5.17C315.109 5.17 314.509 5.488 313.945 6.124V13H312.325V6.7ZM326.818 6.7C326.818 6.088 326.734 5.638 326.566 5.35C326.398 5.05 326.062 4.9 325.558 4.9H325.198V4.54H326.818C327.262 4.54 327.598 4.6 327.826 4.72C328.066 4.84 328.24 5.02 328.348 5.26H328.438C328.69 5.008 329.014 4.798 329.41 4.63C329.818 4.45 330.274 4.36 330.778 4.36C331.678 4.36 332.41 4.6 332.974 5.08C333.55 5.56 333.838 6.4 333.838 7.6V13H332.218V7.6C332.218 6.76 332.026 6.148 331.642 5.764C331.27 5.368 330.802 5.17 330.238 5.17C329.602 5.17 329.002 5.488 328.438 6.124V13H326.818V6.7ZM337.653 3.46C337.377 3.46 337.137 3.346 336.933 3.118C336.741 2.89 336.645 2.62 336.645 2.308C336.645 2.056 336.717 1.858 336.861 1.714C337.017 1.57 337.221 1.498 337.473 1.498C337.749 1.498 337.983 1.612 338.175 1.84C338.379 2.068 338.481 2.338 338.481 2.65C338.481 2.902 338.403 3.1 338.247 3.244C338.103 3.388 337.905 3.46 337.653 3.46ZM336.969 6.7C336.969 6.088 336.885 5.638 336.717 5.35C336.549 5.05 336.213 4.9 335.709 4.9H335.349V4.54H336.969C337.413 4.54 337.743 4.6 337.959 4.72C338.187 4.828 338.349 5.032 338.445 5.332C338.541 5.632 338.589 6.088 338.589 6.7V13H336.969V6.7ZM345.431 5.26V4.54H346.691V4C346.691 1.96 347.741 0.94 349.841 0.94C350.597 0.94 351.107 1.03 351.371 1.21C351.575 1.366 351.785 1.636 352.001 2.02L351.461 2.47C351.101 1.93 350.531 1.66 349.751 1.66C348.791 1.66 348.311 2.44 348.311 4V4.54H350.831V5.26H348.311V13H346.691V5.26H345.431ZM352.917 6.7C352.917 6.088 352.833 5.638 352.665 5.35C352.497 5.05 352.161 4.9 351.657 4.9H351.477V4.54H352.917C353.373 4.54 353.715 4.606 353.943 4.738C354.183 4.858 354.351 5.062 354.447 5.35H354.537C354.753 5.074 355.041 4.84 355.401 4.648C355.773 4.456 356.205 4.36 356.697 4.36C357.177 4.36 357.537 4.45 357.777 4.63C357.981 4.786 358.191 5.056 358.407 5.44L357.687 5.98C357.555 5.8 357.363 5.668 357.111 5.584C356.859 5.488 356.571 5.44 356.247 5.44C355.887 5.44 355.557 5.524 355.257 5.692C354.957 5.848 354.717 6.064 354.537 6.34V13H352.917V6.7ZM363.604 13.18C362.788 13.18 362.08 12.988 361.48 12.604C360.88 12.208 360.424 11.674 360.112 11.002C359.8 10.33 359.644 9.586 359.644 8.77C359.644 7.954 359.8 7.21 360.112 6.538C360.424 5.866 360.88 5.338 361.48 4.954C362.08 4.558 362.788 4.36 363.604 4.36C364.42 4.36 365.128 4.558 365.728 4.954C366.328 5.338 366.784 5.866 367.096 6.538C367.408 7.21 367.564 7.954 367.564 8.77C367.564 9.586 367.408 10.33 367.096 11.002C366.784 11.674 366.328 12.208 365.728 12.604C365.128 12.988 364.42 13.18 363.604 13.18ZM363.604 12.46C364.048 12.46 364.438 12.298 364.774 11.974C365.122 11.65 365.386 11.206 365.566 10.642C365.758 10.078 365.854 9.454 365.854 8.77C365.854 8.086 365.758 7.462 365.566 6.898C365.386 6.334 365.122 5.89 364.774 5.566C364.438 5.242 364.048 5.08 363.604 5.08C363.16 5.08 362.764 5.242 362.416 5.566C362.08 5.89 361.816 6.334 361.624 6.898C361.444 7.462 361.354 8.086 361.354 8.77C361.354 9.454 361.444 10.078 361.624 10.642C361.816 11.206 362.08 11.65 362.416 11.974C362.764 12.298 363.16 12.46 363.604 12.46ZM370.304 6.7C370.304 6.088 370.22 5.638 370.052 5.35C369.884 5.05 369.548 4.9 369.044 4.9H368.684V4.54H370.304C370.748 4.54 371.084 4.6 371.312 4.72C371.552 4.84 371.726 5.02 371.834 5.26H371.924C372.176 5.008 372.5 4.798 372.896 4.63C373.304 4.45 373.76 4.36 374.264 4.36C374.768 4.36 375.2 4.456 375.56 4.648C375.92 4.828 376.208 5.152 376.424 5.62C376.736 5.224 377.132 4.918 377.612 4.702C378.104 4.474 378.608 4.36 379.124 4.36C379.892 4.36 380.504 4.6 380.96 5.08C381.416 5.56 381.644 6.4 381.644 7.6V13H380.024V7.6C380.024 6.736 379.904 6.118 379.664 5.746C379.424 5.362 379.064 5.17 378.584 5.17C378.248 5.17 377.894 5.296 377.522 5.548C377.15 5.788 376.874 6.052 376.694 6.34C376.754 6.52 376.784 6.94 376.784 7.6V13H375.164V7.6C375.164 6.736 375.044 6.118 374.804 5.746C374.564 5.362 374.204 5.17 373.724 5.17C373.088 5.17 372.488 5.488 371.924 6.124V13H370.304V6.7ZM391.313 13C390.869 13 390.533 12.946 390.305 12.838C390.089 12.718 389.933 12.508 389.837 12.208C389.741 11.908 389.693 11.452 389.693 10.84V1.12H391.313V10.84C391.313 11.452 391.397 11.908 391.565 12.208C391.733 12.496 392.069 12.64 392.573 12.64H392.933V13H391.313ZM396.806 13C396.362 13 396.026 12.946 395.798 12.838C395.582 12.718 395.426 12.508 395.33 12.208C395.234 11.908 395.186 11.452 395.186 10.84V1.12H396.806V10.84C396.806 11.452 396.89 11.908 397.058 12.208C397.226 12.496 397.562 12.64 398.066 12.64H398.426V13H396.806ZM401.959 1.84C400.459 1.84 399.709 2.53 399.709 3.91H399.349V2.56C399.349 1.6 399.859 1.12 400.879 1.12H409.249V1.84H405.199V13H403.579V1.84H401.959ZM410.942 5.08C411.422 4.756 411.782 4.402 412.022 4.018C412.262 3.622 412.382 3.166 412.382 2.65L411.842 2.83C411.566 2.83 411.332 2.734 411.14 2.542C410.948 2.35 410.852 2.116 410.852 1.84C410.852 1.528 410.954 1.27 411.158 1.066C411.362 0.862 411.62 0.76 411.932 0.76C412.292 0.76 412.574 0.874 412.778 1.102C412.994 1.318 413.102 1.624 413.102 2.02C413.102 3.496 412.442 4.606 411.122 5.35L410.942 5.08ZM432.448 13.18C431.068 13.18 430.138 12.94 429.658 12.46C429.454 12.256 429.328 12.028 429.28 11.776C429.232 11.512 429.208 11.11 429.208 10.57H429.568C429.676 11.17 429.934 11.638 430.342 11.974C430.762 12.298 431.344 12.46 432.088 12.46C432.748 12.46 433.24 12.346 433.564 12.118C433.9 11.89 434.068 11.584 434.068 11.2C434.068 10.852 433.936 10.552 433.672 10.3C433.42 10.048 433.012 9.808 432.448 9.58L431.368 9.13C430.648 8.842 430.108 8.506 429.748 8.122C429.388 7.738 429.208 7.264 429.208 6.7C429.208 5.968 429.484 5.398 430.036 4.99C430.588 4.57 431.302 4.36 432.178 4.36C433.498 4.36 434.398 4.6 434.878 5.08C435.082 5.284 435.208 5.512 435.256 5.764C435.304 6.016 435.328 6.418 435.328 6.97H434.968C434.872 6.37 434.62 5.908 434.212 5.584C433.804 5.248 433.246 5.08 432.538 5.08C431.974 5.08 431.53 5.2 431.206 5.44C430.894 5.668 430.738 5.968 430.738 6.34C430.738 6.964 431.218 7.474 432.178 7.87L433.258 8.32C434.074 8.656 434.668 9.016 435.04 9.4C435.412 9.772 435.598 10.252 435.598 10.84C435.598 11.572 435.304 12.148 434.716 12.568C434.128 12.976 433.372 13.18 432.448 13.18ZM446.115 13.36C444.903 13.36 443.967 13.096 443.307 12.568C442.659 12.028 442.335 11.332 442.335 10.48C442.335 10.012 442.449 9.592 442.677 9.22C442.905 8.836 443.175 8.506 443.487 8.23C443.811 7.954 444.285 7.588 444.909 7.132C444.513 6.772 444.201 6.436 443.973 6.124C443.697 5.776 443.475 5.386 443.307 4.954C443.139 4.51 443.055 4.048 443.055 3.568C443.055 2.704 443.343 2.02 443.919 1.516C444.507 1.012 445.299 0.76 446.295 0.76C447.219 0.76 447.945 0.994 448.473 1.462C449.001 1.93 449.265 2.536 449.265 3.28C449.265 3.808 449.151 4.282 448.923 4.702C448.695 5.11 448.401 5.476 448.041 5.8C447.681 6.124 447.213 6.484 446.637 6.88L450.255 10.84C450.687 10.372 451.083 9.862 451.443 9.31C451.623 9.022 451.767 8.782 451.875 8.59L452.235 8.86C452.103 9.136 451.971 9.388 451.839 9.616C451.479 10.228 451.077 10.774 450.633 11.254L452.235 13H450.255L449.535 12.226C448.527 12.982 447.387 13.36 446.115 13.36ZM446.079 6.25C446.619 5.794 447.027 5.356 447.303 4.936C447.591 4.504 447.735 4.012 447.735 3.46C447.735 2.764 447.585 2.248 447.285 1.912C446.997 1.564 446.667 1.39 446.295 1.39C445.875 1.39 445.515 1.564 445.215 1.912C444.915 2.26 444.765 2.812 444.765 3.568C444.765 3.988 444.855 4.396 445.035 4.792C445.215 5.176 445.413 5.5 445.629 5.764C445.845 6.028 445.995 6.19 446.079 6.25ZM446.457 12.73C447.465 12.73 448.365 12.424 449.157 11.812L445.449 7.762C444.993 8.158 444.645 8.554 444.405 8.95C444.165 9.346 444.045 9.796 444.045 10.3C444.045 11.92 444.849 12.73 446.457 12.73ZM1.908 26.28C1.908 25.668 1.824 25.218 1.656 24.93C1.488 24.63 1.152 24.48 0.648 24.48H0.288V24.12H1.908C2.352 24.12 2.682 24.18 2.898 24.3C3.126 24.408 3.288 24.612 3.384 24.912C3.48 25.212 3.528 25.668 3.528 26.28V35.28H9.918V36H1.908V26.28ZM14.741 36.18C13.925 36.18 13.235 35.988 12.671 35.604C12.107 35.208 11.681 34.68 11.393 34.02C11.105 33.348 10.961 32.598 10.961 31.77C10.961 30.954 11.105 30.21 11.393 29.538C11.681 28.866 12.095 28.338 12.635 27.954C13.187 27.558 13.829 27.36 14.561 27.36C15.773 27.36 16.673 27.702 17.261 28.386C17.861 29.058 18.161 30.036 18.161 31.32L18.125 32.04H12.671C12.671 33.048 12.887 33.87 13.319 34.506C13.751 35.142 14.345 35.46 15.101 35.46C15.665 35.46 16.139 35.34 16.523 35.1C16.919 34.86 17.285 34.5 17.621 34.02L17.981 34.29C17.585 34.95 17.123 35.43 16.595 35.73C16.067 36.03 15.449 36.18 14.741 36.18ZM16.451 31.32C16.451 30.264 16.295 29.46 15.983 28.908C15.671 28.356 15.197 28.08 14.561 28.08C14.201 28.08 13.877 28.224 13.589 28.512C13.301 28.788 13.073 29.172 12.905 29.664C12.749 30.156 12.671 30.708 12.671 31.32H16.451ZM22.6121 36.18C22.2281 36.18 21.8381 36.102 21.4421 35.946C21.0461 35.778 20.7041 35.508 20.4161 35.136C20.1401 34.764 20.0021 34.272 20.0021 33.66C20.0021 32.748 20.4221 32.1 21.2621 31.716C22.1141 31.332 23.2241 31.14 24.5921 31.14H25.1321C25.1321 29.964 24.9701 29.16 24.6461 28.728C24.3221 28.296 23.8541 28.08 23.2421 28.08C22.7021 28.08 22.2701 28.194 21.9461 28.422C21.6221 28.65 21.3941 29.046 21.2621 29.61H20.4521C20.4521 29.202 20.4761 28.884 20.5241 28.656C20.5721 28.416 20.6981 28.194 20.9021 27.99C21.1181 27.774 21.4721 27.618 21.9641 27.522C22.4681 27.414 23.0141 27.36 23.6021 27.36C24.5741 27.36 25.3421 27.624 25.9061 28.152C26.4701 28.668 26.7521 29.664 26.7521 31.14V36H25.8521L25.2221 35.19H25.1321C24.9161 35.466 24.5981 35.7 24.1781 35.892C23.7581 36.084 23.2361 36.18 22.6121 36.18ZM23.4221 35.37C23.8181 35.37 24.1481 35.274 24.4121 35.082C24.6761 34.89 24.9161 34.626 25.1321 34.29V31.86H24.5921C23.7041 31.86 23.0021 32.028 22.4861 32.364C21.9701 32.688 21.7121 33.12 21.7121 33.66C21.7121 34.212 21.8741 34.638 22.1981 34.938C22.5341 35.226 22.9421 35.37 23.4221 35.37ZM32.4121 36.18C31.3681 36.18 30.5641 35.766 30.0001 34.938C29.4481 34.11 29.1721 33.054 29.1721 31.77C29.1721 30.486 29.4601 29.43 30.0361 28.602C30.6241 27.774 31.4761 27.36 32.5921 27.36C33.0481 27.36 33.4501 27.408 33.7981 27.504C34.1461 27.6 34.4941 27.732 34.8421 27.9V26.28C34.8421 25.668 34.7581 25.218 34.5901 24.93C34.4221 24.63 34.0861 24.48 33.5821 24.48H33.2221V24.12H34.8421C35.2861 24.12 35.6161 24.18 35.8321 24.3C36.0601 24.408 36.2221 24.612 36.3181 24.912C36.4141 25.212 36.4621 25.668 36.4621 26.28V36H35.5621L34.9321 35.19H34.8421C34.5781 35.49 34.2661 35.73 33.9061 35.91C33.5581 36.09 33.0601 36.18 32.4121 36.18ZM32.9521 35.46C33.4441 35.46 33.8161 35.37 34.0681 35.19C34.3201 35.01 34.5781 34.74 34.8421 34.38V28.62C34.4821 28.452 34.1701 28.32 33.9061 28.224C33.6421 28.128 33.3841 28.08 33.1321 28.08C32.3641 28.08 31.7941 28.416 31.4221 29.088C31.0621 29.76 30.8821 30.654 30.8821 31.77C30.8821 32.874 31.0561 33.768 31.4041 34.452C31.7521 35.124 32.2681 35.46 32.9521 35.46ZM40.3755 26.46C40.0995 26.46 39.8595 26.346 39.6555 26.118C39.4635 25.89 39.3675 25.62 39.3675 25.308C39.3675 25.056 39.4395 24.858 39.5835 24.714C39.7395 24.57 39.9435 24.498 40.1955 24.498C40.4715 24.498 40.7055 24.612 40.8975 24.84C41.1015 25.068 41.2035 25.338 41.2035 25.65C41.2035 25.902 41.1255 26.1 40.9695 26.244C40.8255 26.388 40.6275 26.46 40.3755 26.46ZM39.6915 29.7C39.6915 29.088 39.6075 28.638 39.4395 28.35C39.2715 28.05 38.9355 27.9 38.4315 27.9H38.0715V27.54H39.6915C40.1355 27.54 40.4655 27.6 40.6815 27.72C40.9095 27.828 41.0715 28.032 41.1675 28.332C41.2635 28.632 41.3115 29.088 41.3115 29.7V36H39.6915V29.7ZM44.4812 29.7C44.4812 29.088 44.3972 28.638 44.2292 28.35C44.0612 28.05 43.7252 27.9 43.2212 27.9H42.8612V27.54H44.4812C44.9252 27.54 45.2612 27.6 45.4892 27.72C45.7292 27.84 45.9032 28.02 46.0112 28.26H46.1012C46.3532 28.008 46.6772 27.798 47.0732 27.63C47.4812 27.45 47.9372 27.36 48.4412 27.36C49.3412 27.36 50.0732 27.6 50.6372 28.08C51.2132 28.56 51.5012 29.4 51.5012 30.6V36H49.8812V30.6C49.8812 29.76 49.6892 29.148 49.3052 28.764C48.9332 28.368 48.4652 28.17 47.9012 28.17C47.2652 28.17 46.6652 28.488 46.1012 29.124V36H44.4812V29.7ZM57.4942 39.6C56.2823 39.6 55.3162 39.378 54.5962 38.934C53.8882 38.49 53.5342 37.782 53.5342 36.81C53.5342 36.258 53.7202 35.778 54.0922 35.37C54.4642 34.962 54.9382 34.662 55.5142 34.47C55.0342 34.206 54.7942 33.846 54.7942 33.39C54.7942 33.15 54.8482 32.964 54.9562 32.832C55.0642 32.7 55.2203 32.556 55.4243 32.4C55.0403 32.208 54.7162 31.908 54.4522 31.5C54.2002 31.092 54.0742 30.612 54.0742 30.06C54.0742 28.26 55.2142 27.36 57.4942 27.36H60.8243V27.81L59.6543 27.99V28.08C60.0263 28.272 60.3263 28.542 60.5543 28.89C60.7943 29.226 60.9143 29.616 60.9143 30.06C60.9143 31.86 59.7743 32.76 57.4942 32.76C56.2342 32.76 55.6042 32.97 55.6042 33.39C55.6042 33.81 56.2342 34.02 57.4942 34.02C58.6583 34.02 59.6063 34.254 60.3383 34.722C61.0823 35.178 61.4543 35.874 61.4543 36.81C61.4543 37.782 61.0943 38.49 60.3743 38.934C59.6662 39.378 58.7062 39.6 57.4942 39.6ZM57.4942 32.13C58.0342 32.13 58.4663 31.968 58.7903 31.644C59.1263 31.308 59.2943 30.78 59.2943 30.06C59.2943 29.376 59.1263 28.86 58.7903 28.512C58.4663 28.164 58.0342 27.99 57.4942 27.99C56.9542 27.99 56.5162 28.158 56.1802 28.494C55.8563 28.818 55.6943 29.34 55.6943 30.06C55.6943 30.78 55.8563 31.308 56.1802 31.644C56.5162 31.968 56.9542 32.13 57.4942 32.13ZM57.4942 38.88C58.2143 38.88 58.7843 38.706 59.2043 38.358C59.6243 38.022 59.8343 37.506 59.8343 36.81C59.8343 35.61 59.1143 34.92 57.6743 34.74L56.6842 34.65C56.1923 34.842 55.8143 35.112 55.5503 35.46C55.2862 35.808 55.1542 36.258 55.1542 36.81C55.1542 37.506 55.3642 38.022 55.7842 38.358C56.2042 38.706 56.7742 38.88 57.4942 38.88ZM70.1336 24.84C68.6336 24.84 67.8836 25.53 67.8836 26.91H67.5236V25.56C67.5236 24.6 68.0336 24.12 69.0536 24.12H77.4236V24.84H73.3736V36H71.7536V24.84H70.1336ZM81.0429 36.18C80.2269 36.18 79.5369 35.988 78.9729 35.604C78.4089 35.208 77.9829 34.68 77.6949 34.02C77.4069 33.348 77.2629 32.598 77.2629 31.77C77.2629 30.954 77.4069 30.21 77.6949 29.538C77.9829 28.866 78.3969 28.338 78.9369 27.954C79.4889 27.558 80.1309 27.36 80.8629 27.36C82.0749 27.36 82.9749 27.702 83.5629 28.386C84.1629 29.058 84.4629 30.036 84.4629 31.32L84.4269 32.04H78.9729C78.9729 33.048 79.1889 33.87 79.6209 34.506C80.0529 35.142 80.6469 35.46 81.4029 35.46C81.9669 35.46 82.4409 35.34 82.8249 35.1C83.2209 34.86 83.5869 34.5 83.9229 34.02L84.2829 34.29C83.8869 34.95 83.4249 35.43 82.8969 35.73C82.3689 36.03 81.7509 36.18 81.0429 36.18ZM82.7529 31.32C82.7529 30.264 82.5969 29.46 82.2849 28.908C81.9729 28.356 81.4989 28.08 80.8629 28.08C80.5029 28.08 80.1789 28.224 79.8909 28.512C79.6029 28.788 79.3749 29.172 79.2069 29.664C79.0509 30.156 78.9729 30.708 78.9729 31.32H82.7529ZM90.372 36.18C89.508 36.18 88.776 35.988 88.176 35.604C87.588 35.208 87.144 34.68 86.844 34.02C86.556 33.348 86.412 32.598 86.412 31.77C86.412 30.942 86.556 30.198 86.844 29.538C87.144 28.866 87.588 28.338 88.176 27.954C88.776 27.558 89.508 27.36 90.372 27.36C91.692 27.36 92.562 27.57 92.982 27.99C93.186 28.194 93.312 28.446 93.36 28.746C93.408 29.034 93.432 29.562 93.432 30.33H93.072C93.024 29.586 92.79 29.028 92.37 28.656C91.95 28.272 91.404 28.08 90.732 28.08C89.868 28.08 89.214 28.422 88.77 29.106C88.338 29.79 88.122 30.678 88.122 31.77C88.122 32.862 88.338 33.75 88.77 34.434C89.214 35.118 89.868 35.46 90.732 35.46C91.344 35.46 91.848 35.346 92.244 35.118C92.64 34.878 93.006 34.512 93.342 34.02L93.702 34.29C93.306 34.962 92.838 35.448 92.298 35.748C91.758 36.036 91.116 36.18 90.372 36.18ZM95.9591 26.28C95.9591 25.668 95.8751 25.218 95.7071 24.93C95.5391 24.63 95.2031 24.48 94.6991 24.48H94.3391V24.12H95.9591C96.4031 24.12 96.7331 24.18 96.9491 24.3C97.1771 24.408 97.3391 24.612 97.4351 24.912C97.5311 25.212 97.5791 25.668 97.5791 26.28V28.26C97.8311 28.008 98.1551 27.798 98.5511 27.63C98.9591 27.45 99.4151 27.36 99.9191 27.36C100.819 27.36 101.551 27.6 102.115 28.08C102.691 28.56 102.979 29.4 102.979 30.6V36H101.359V30.6C101.359 29.76 101.167 29.148 100.783 28.764C100.411 28.368 99.9431 28.17 99.3791 28.17C98.7431 28.17 98.1431 28.488 97.5791 29.124V36H95.9591V26.28ZM115.782 36.36C114.666 36.36 113.682 36.09 112.83 35.55C111.99 35.01 111.342 34.278 110.886 33.354C110.43 32.418 110.202 31.38 110.202 30.24C110.202 29.064 110.448 27.978 110.94 26.982C111.444 25.986 112.122 25.2 112.974 24.624C113.838 24.048 114.774 23.76 115.782 23.76C116.742 23.76 117.582 23.898 118.302 24.174C119.034 24.438 119.574 24.78 119.922 25.2C120.126 25.452 120.252 25.788 120.3 26.208C120.348 26.616 120.372 27.18 120.372 27.9H120.012C119.784 26.736 119.364 25.878 118.752 25.326C118.14 24.762 117.33 24.48 116.322 24.48C115.026 24.48 113.982 24.936 113.19 25.848C112.398 26.76 112.002 28.224 112.002 30.24C112.002 31.188 112.152 32.07 112.452 32.886C112.764 33.702 113.244 34.368 113.892 34.884C114.54 35.388 115.35 35.64 116.322 35.64C117.198 35.64 117.96 35.43 118.608 35.01C119.268 34.59 119.856 33.96 120.372 33.12L120.732 33.39C120.18 34.47 119.496 35.238 118.68 35.694C117.876 36.138 116.91 36.36 115.782 36.36ZM126.511 36.18C125.695 36.18 124.987 35.988 124.387 35.604C123.787 35.208 123.331 34.674 123.019 34.002C122.707 33.33 122.551 32.586 122.551 31.77C122.551 30.954 122.707 30.21 123.019 29.538C123.331 28.866 123.787 28.338 124.387 27.954C124.987 27.558 125.695 27.36 126.511 27.36C127.327 27.36 128.035 27.558 128.635 27.954C129.235 28.338 129.691 28.866 130.003 29.538C130.315 30.21 130.471 30.954 130.471 31.77C130.471 32.586 130.315 33.33 130.003 34.002C129.691 34.674 129.235 35.208 128.635 35.604C128.035 35.988 127.327 36.18 126.511 36.18ZM126.511 35.46C126.955 35.46 127.345 35.298 127.681 34.974C128.029 34.65 128.293 34.206 128.473 33.642C128.665 33.078 128.761 32.454 128.761 31.77C128.761 31.086 128.665 30.462 128.473 29.898C128.293 29.334 128.029 28.89 127.681 28.566C127.345 28.242 126.955 28.08 126.511 28.08C126.067 28.08 125.671 28.242 125.323 28.566C124.987 28.89 124.723 29.334 124.531 29.898C124.351 30.462 124.261 31.086 124.261 31.77C124.261 32.454 124.351 33.078 124.531 33.642C124.723 34.206 124.987 34.65 125.323 34.974C125.671 35.298 126.067 35.46 126.511 35.46ZM133.212 29.7C133.212 29.088 133.128 28.638 132.96 28.35C132.792 28.05 132.456 27.9 131.952 27.9H131.592V27.54H133.212C133.656 27.54 133.992 27.6 134.22 27.72C134.46 27.84 134.634 28.02 134.742 28.26H134.832C135.084 28.008 135.408 27.798 135.804 27.63C136.212 27.45 136.668 27.36 137.172 27.36C137.676 27.36 138.108 27.456 138.468 27.648C138.828 27.828 139.116 28.152 139.332 28.62C139.644 28.224 140.04 27.918 140.52 27.702C141.012 27.474 141.516 27.36 142.032 27.36C142.8 27.36 143.412 27.6 143.868 28.08C144.324 28.56 144.552 29.4 144.552 30.6V36H142.932V30.6C142.932 29.736 142.812 29.118 142.572 28.746C142.332 28.362 141.972 28.17 141.492 28.17C141.156 28.17 140.802 28.296 140.43 28.548C140.058 28.788 139.782 29.052 139.602 29.34C139.662 29.52 139.692 29.94 139.692 30.6V36H138.072V30.6C138.072 29.736 137.952 29.118 137.712 28.746C137.472 28.362 137.112 28.17 136.632 28.17C135.996 28.17 135.396 28.488 134.832 29.124V36H133.212V29.7ZM147.705 29.7C147.705 29.088 147.621 28.638 147.453 28.35C147.285 28.05 146.949 27.9 146.445 27.9H146.085V27.54H147.705C148.161 27.54 148.503 27.606 148.731 27.738C148.971 27.858 149.139 28.062 149.235 28.35H149.325C149.541 28.074 149.847 27.84 150.243 27.648C150.639 27.456 151.143 27.36 151.755 27.36C152.787 27.36 153.585 27.78 154.149 28.62C154.713 29.448 154.995 30.498 154.995 31.77C154.995 33.054 154.701 34.11 154.113 34.938C153.537 35.766 152.691 36.18 151.575 36.18C151.119 36.18 150.717 36.132 150.369 36.036C150.021 35.94 149.673 35.808 149.325 35.64V39.42H147.705V29.7ZM151.035 35.46C151.803 35.46 152.367 35.124 152.727 34.452C153.099 33.78 153.285 32.886 153.285 31.77C153.285 30.666 153.111 29.778 152.763 29.106C152.415 28.422 151.899 28.08 151.215 28.08C150.411 28.08 149.781 28.44 149.325 29.16V34.92C149.685 35.088 149.997 35.22 150.261 35.316C150.525 35.412 150.783 35.46 151.035 35.46ZM159.496 36.18C159.112 36.18 158.722 36.102 158.326 35.946C157.93 35.778 157.588 35.508 157.3 35.136C157.024 34.764 156.886 34.272 156.886 33.66C156.886 32.748 157.306 32.1 158.146 31.716C158.998 31.332 160.108 31.14 161.476 31.14H162.016C162.016 29.964 161.854 29.16 161.53 28.728C161.206 28.296 160.738 28.08 160.126 28.08C159.586 28.08 159.154 28.194 158.83 28.422C158.506 28.65 158.278 29.046 158.146 29.61H157.336C157.336 29.202 157.36 28.884 157.408 28.656C157.456 28.416 157.582 28.194 157.786 27.99C158.002 27.774 158.356 27.618 158.848 27.522C159.352 27.414 159.898 27.36 160.486 27.36C161.458 27.36 162.226 27.624 162.79 28.152C163.354 28.668 163.636 29.664 163.636 31.14V36H162.736L162.106 35.19H162.016C161.8 35.466 161.482 35.7 161.062 35.892C160.642 36.084 160.12 36.18 159.496 36.18ZM160.306 35.37C160.702 35.37 161.032 35.274 161.296 35.082C161.56 34.89 161.8 34.626 162.016 34.29V31.86H161.476C160.588 31.86 159.886 32.028 159.37 32.364C158.854 32.688 158.596 33.12 158.596 33.66C158.596 34.212 158.758 34.638 159.082 34.938C159.418 35.226 159.826 35.37 160.306 35.37ZM166.776 29.7C166.776 29.088 166.692 28.638 166.524 28.35C166.356 28.05 166.02 27.9 165.516 27.9H165.156V27.54H166.776C167.22 27.54 167.556 27.6 167.784 27.72C168.024 27.84 168.198 28.02 168.306 28.26H168.396C168.648 28.008 168.972 27.798 169.368 27.63C169.776 27.45 170.232 27.36 170.736 27.36C171.636 27.36 172.368 27.6 172.932 28.08C173.508 28.56 173.796 29.4 173.796 30.6V36H172.176V30.6C172.176 29.76 171.984 29.148 171.6 28.764C171.228 28.368 170.76 28.17 170.196 28.17C169.56 28.17 168.96 28.488 168.396 29.124V36H166.776V29.7ZM177.611 26.46C177.335 26.46 177.095 26.346 176.891 26.118C176.699 25.89 176.603 25.62 176.603 25.308C176.603 25.056 176.675 24.858 176.819 24.714C176.975 24.57 177.179 24.498 177.431 24.498C177.707 24.498 177.941 24.612 178.133 24.84C178.337 25.068 178.439 25.338 178.439 25.65C178.439 25.902 178.361 26.1 178.205 26.244C178.061 26.388 177.863 26.46 177.611 26.46ZM176.927 29.7C176.927 29.088 176.843 28.638 176.675 28.35C176.507 28.05 176.171 27.9 175.667 27.9H175.307V27.54H176.927C177.371 27.54 177.701 27.6 177.917 27.72C178.145 27.828 178.307 28.032 178.403 28.332C178.499 28.632 178.547 29.088 178.547 29.7V36H176.927V29.7ZM184.741 36.18C183.925 36.18 183.235 35.988 182.671 35.604C182.107 35.208 181.681 34.68 181.393 34.02C181.105 33.348 180.961 32.598 180.961 31.77C180.961 30.954 181.105 30.21 181.393 29.538C181.681 28.866 182.095 28.338 182.635 27.954C183.187 27.558 183.829 27.36 184.561 27.36C185.773 27.36 186.673 27.702 187.261 28.386C187.861 29.058 188.161 30.036 188.161 31.32L188.125 32.04H182.671C182.671 33.048 182.887 33.87 183.319 34.506C183.751 35.142 184.345 35.46 185.101 35.46C185.665 35.46 186.139 35.34 186.523 35.1C186.919 34.86 187.285 34.5 187.621 34.02L187.981 34.29C187.585 34.95 187.123 35.43 186.595 35.73C186.067 36.03 185.449 36.18 184.741 36.18ZM186.451 31.32C186.451 30.264 186.295 29.46 185.983 28.908C185.671 28.356 185.197 28.08 184.561 28.08C184.201 28.08 183.877 28.224 183.589 28.512C183.301 28.788 183.073 29.172 182.905 29.664C182.749 30.156 182.671 30.708 182.671 31.32H186.451ZM193.422 36.18C192.042 36.18 191.112 35.94 190.632 35.46C190.428 35.256 190.302 35.028 190.254 34.776C190.206 34.512 190.182 34.11 190.182 33.57H190.542C190.65 34.17 190.908 34.638 191.316 34.974C191.736 35.298 192.318 35.46 193.062 35.46C193.722 35.46 194.214 35.346 194.538 35.118C194.874 34.89 195.042 34.584 195.042 34.2C195.042 33.852 194.91 33.552 194.646 33.3C194.394 33.048 193.986 32.808 193.422 32.58L192.342 32.13C191.622 31.842 191.082 31.506 190.722 31.122C190.362 30.738 190.182 30.264 190.182 29.7C190.182 28.968 190.458 28.398 191.01 27.99C191.562 27.57 192.276 27.36 193.152 27.36C194.472 27.36 195.372 27.6 195.852 28.08C196.056 28.284 196.182 28.512 196.23 28.764C196.278 29.016 196.302 29.418 196.302 29.97H195.942C195.846 29.37 195.594 28.908 195.186 28.584C194.778 28.248 194.22 28.08 193.512 28.08C192.948 28.08 192.504 28.2 192.18 28.44C191.868 28.668 191.712 28.968 191.712 29.34C191.712 29.964 192.192 30.474 193.152 30.87L194.232 31.32C195.048 31.656 195.642 32.016 196.014 32.4C196.386 32.772 196.572 33.252 196.572 33.84C196.572 34.572 196.278 35.148 195.69 35.568C195.102 35.976 194.346 36.18 193.422 36.18ZM199.673 36.252C199.409 36.252 199.181 36.156 198.989 35.964C198.797 35.772 198.701 35.538 198.701 35.262C198.701 34.998 198.797 34.77 198.989 34.578C199.181 34.386 199.409 34.29 199.673 34.29C199.949 34.29 200.177 34.386 200.357 34.578C200.549 34.77 200.645 34.998 200.645 35.262C200.645 35.538 200.549 35.772 200.357 35.964C200.165 36.156 199.937 36.252 199.673 36.252Z" fill="#595959"/>
</svg>
